<?xml version="1.0" standalone="no"?><!DOCTYPE svg PUBLIC "-//W3C//DTD SVG 1.1//EN" "http://www.w3.org/Graphics/SVG/1.1/DTD/svg11.dtd"><svg t="1615861367839" class="icon" viewBox="0 0 1024 1024" version="1.1" xmlns="http://www.w3.org/2000/svg" p-id="2813" xmlns:xlink="http://www.w3.org/1999/xlink" width="64" height="64"><defs><style type="text/css"></style></defs><path d="M434.902576 435.039187l0-7.656377c0-84.99479 0-214.688617 0-299.704896 0-34.795481 24.739451-61.302181 59.513442-61.912072 41.624003-0.741897-6.065136-0.720408 35.602869-0.021489 34.164101 0.566912 59.032488 27.182083 59.07649 61.739133 0.086981 84.797291 0.044002 214.274178 0.044002 299.07147l0 8.486278 8.289804 0c84.164888 0 213.008348 0 297.173237 0 38.395472 0 63.963801 25.546839 64.051805 64.029292 0.086981 38.482453 0.086981-12.391215 0 26.113751-0.088004 38.526455-25.65531 64.028269-64.007803 64.028269L597.473185 589.212546l-8.02886 0c-0.130983 2.182712-0.304945 4.01443-0.304945 5.824659-0.044002 85.234243 0.042979 215.125569-0.044002 300.337299 0 30.345122-17.671475 54.342676-45.245484 61.301158-5.454222 1.375324-11.257391 1.963725-16.929578 1.985214-39.530318 0.174985 10.253528 0.130983-29.275767 0.086981-36.650735-0.042979-62.698994-26.004257-62.741973-62.698994-0.042979-85.429695 0-215.538985 0-300.968679l0-5.868661-7.67889 0c-84.99479 0-214.710107 0-299.703873-0.021489-35.733852 0-62.087057-26.200732-62.175061-61.978587-0.086981-39.987736-0.086981 9.402137 0-30.563086 0.086981-35.384905 26.440186-61.58666 61.956074-61.58666 84.775802-0.044002 214.274178-0.021489 299.04998-0.021489C428.881442 435.039187 431.412079 435.039187 434.902576 435.039187L434.902576 435.039187zM434.902576 435.039187" p-id="2814" fill="#bfbfbf"></path></svg>