<?xml version="1.0" standalone="no"?><!DOCTYPE svg PUBLIC "-//W3C//DTD SVG 1.1//EN" "http://www.w3.org/Graphics/SVG/1.1/DTD/svg11.dtd"><svg t="1615794981677" class="icon" viewBox="0 0 1024 1024" version="1.1" xmlns="http://www.w3.org/2000/svg" p-id="6265" xmlns:xlink="http://www.w3.org/1999/xlink" width="64" height="64"><defs><style type="text/css"></style></defs><path d="M160 832h704a32 32 0 1 1 0 64h-704a32 32 0 1 1 0-64z m426.666667-704h277.333333a32 32 0 1 1 0 64h-277.333333a32 32 0 1 1 0-64zM206.5408 343.607467l163.665067 160.981333a31.6288 31.6288 0 0 1 0 45.252267c-12.706133 12.501333-33.3056 12.501333-46.011734 0l-186.666666-183.607467a31.6288 31.6288 0 0 1 0-45.252267l186.666666-183.607466c12.706133-12.501333 33.3056-12.501333 46.011734 0a31.6288 31.6288 0 0 1 0 45.252266l-163.665067 160.981334zM586.666667 490.666667h277.333333a32 32 0 1 1 0 64h-277.333333a32 32 0 1 1 0-64z" p-id="6266" fill="#bfbfbf"></path></svg>