<?xml version="1.0" standalone="no"?><!DOCTYPE svg PUBLIC "-//W3C//DTD SVG 1.1//EN" "http://www.w3.org/Graphics/SVG/1.1/DTD/svg11.dtd"><svg t="1616138616227" class="icon" viewBox="0 0 1024 1024" version="1.1" xmlns="http://www.w3.org/2000/svg" p-id="3660" xmlns:xlink="http://www.w3.org/1999/xlink" width="64" height="64"><defs><style type="text/css"></style></defs><path d="M168.29 538.88h152v46.51l-176.95 11.34 40.83 136.12 136.12-34.03v218.92l99.82-106.63V673.86l54.44-13.61 22.69-86.21-77.13 4.95v-40.11h52.17v-18.76l-303.99-44.48v63.24zM510.85 719.24l-13.61 198.5L614.07 800.9l4.54-138.38 4.05-120.39-102.74-15.04-9.07 192.15zM698.01 938.16l89.61-155.4-5.23-217.26-84.38-12.34v385zM472.28 466.28l-52.17-2.54v-60.98h-99.82v56.11l-34.03-1.66 52.36-133.09 147.28 6.05v-108.9l-104.92-4.82 14.17-36.01-40.83-95.28-62.83 127.18-200.33-9.21 90.74 114.56 56.41 2.31-69.38 140.45 303.35 43.25v-37.42zM631.47 280.26H876.1l56.06-161.1s-116.47 54.47-155 59C742.4 182.25 633 190.65 633 190.65h-97.19l-15.1 320 102.53 14.61z" p-id="3661" fill="#bfbfbf"></path><path d="M780.82 500.31h78.26l73.08-121.15-289.73 34.95v86.2h55.58v35.56l83.95 11.97-1.14-47.53z" p-id="3662" fill="#bfbfbf"></path></svg>