<?xml version="1.0" standalone="no"?><!DOCTYPE svg PUBLIC "-//W3C//DTD SVG 1.1//EN" "http://www.w3.org/Graphics/SVG/1.1/DTD/svg11.dtd"><svg t="1616138755353" class="icon" viewBox="0 0 1024 1024" version="1.1" xmlns="http://www.w3.org/2000/svg" p-id="4559" xmlns:xlink="http://www.w3.org/1999/xlink" width="64" height="64"><defs><style type="text/css"></style></defs><path d="M773.458 1005.43c-14.403 0-30.592-4.132-45.599-11.638L513.567 886.61 297.948 993.618c-13.655 7.27-29.286 11.09-45.225 11.09a96.164 96.164 0 0 1-57.549-18.842c-30.177-22.64-45.64-61.85-38.502-97.561l44.099-228.772L31.744 501.996a104.059 104.059 0 0 1-26.281-100.66l0.338-1.162c12.288-36.828 42.772-62.633 79.734-67.584l234.839-42.7L425.779 75.811c16.932-33.895 51.37-55.675 87.788-55.675 37.99 0 73.318 22.6 88.13 56.29l105.068 213.4L941.64 330.89a95.672 95.672 0 0 1 78.264 68.373 98.97 98.97 0 0 1-24.474 101.002l-0.578 0.579-168.55 158.72L868.9 888.745c6.86 36.649-7.716 73.672-38.062 96.742a90.409 90.409 0 0 1-57.38 19.943z m-259.81-196.055l227.667 113.853c6.686 3.37 14.392 5.489 19.665 5.489 8.116 0 15.652-2.499 21.187-7.117l1.03-0.85c12.937-9.707 19.245-25.134 16.414-40.238l-45.814-246.804 181.212-170.65c11.126-11.28 14.93-27.433 9.995-42.286l-0.497-1.562a37.31 37.31 0 0 0-30.971-27.003l-1.034-0.163L661.76 348.21 548.91 118.99c-5.478-12.805-20.347-22.098-35.359-22.098-14.75 0-28.861 9.236-36.009 23.496L365.414 348.109l-252.062 45.788c-15.31 1.92-27.203 12.088-32.697 27.945-3.901 14.49 0.722 31.949 11.372 42.834l181.422 169.057-47.61 246.933c-2.863 14.28 3.9 30.714 16.409 40.1 6.272 4.715 14.397 7.316 22.917 7.316 6.569 0 12.866-1.531 18.294-4.45l0.783-0.46 229.407-113.797z" fill="#707070" p-id="4560"></path></svg>